<svg width="100" height="100" viewBox="0 0 100 100" fill="none" xmlns="http://www.w3.org/2000/svg">
<path d="M70.9937 76.1897L71.4873 75.8332L71.4065 75.4383L82.1698 24.0418L38.3974 14.8752L38.3831 14.9438C33.9588 14.5213 29.9112 17.489 28.9944 21.8666L18.8911 70.1114C18.3509 73.3012 20.3753 76.4912 23.7128 77.1901C27.2655 77.9325 9.03467 74.1229 69.0358 86.661L69.3002 85.3983L69.1928 85.1306C67.7967 81.4053 68.3879 78.4844 70.9937 76.1897ZM52.9473 53.8561L53.3573 51.8985L66.5712 54.6657L66.1613 56.6233L52.9473 53.8561ZM67.6658 49.4389L41.2379 43.9046L41.6479 41.947L68.0758 47.4813L67.6658 49.4389ZM42.7404 36.73L43.1504 34.7724L56.3643 37.5396L55.9544 39.4971L42.7404 36.73ZM30.952 22.2766C31.6359 19.0108 34.6119 16.7073 37.9711 16.9112L27.8083 65.4398L26.4869 65.1631C24.4193 64.7301 23.0801 65.3486 21.8868 65.906C21.861 65.9313 21.8276 65.9447 21.8039 65.9602L30.952 22.2766ZM24.1227 75.2325C21.87 74.7608 20.5008 72.5966 20.8569 70.4822L20.8958 70.2962C21.3645 68.0585 23.8199 66.648 26.0769 67.1207L68.4105 75.9859C66.5521 78.2736 66.0095 81.0106 66.8087 84.1716L24.1227 75.2325Z" fill="black"/>
<path d="M62.9851 78.0921L26.6571 70.4833L26.2473 72.4416L62.5753 80.0504L62.9851 78.0921Z" fill="black"/>
</svg>
